<svg width="197" height="200" viewBox="0 0 197 200" fill="none" xmlns="http://www.w3.org/2000/svg">
<path d="M191.161 139.069H108.456V154.544H191.161V139.069Z" fill="#1A1A1A"/>
<path d="M183.432 13.1855C179.133 5.34204 170.809 0 161.215 0C147.237 0 135.906 11.3412 135.906 25.3323C135.906 26.6678 136.033 27.9609 136.244 29.2328L134.105 31.8614L0.420706 196.935C-0.235857 197.74 -0.10878 198.927 0.696039 199.585C1.43732 200.178 2.51747 200.136 3.19521 199.457L59.469 143.196C69.8469 132.83 83.9101 127.001 98.5874 127.001H118.178C160.982 127.001 186.715 102.601 182.056 52.4664C180.446 35.2108 181.336 27.9397 187.245 20.6474C190.294 16.8953 196.204 9.56055 196.204 9.56055L189.278 11.5108L183.411 13.1643L183.432 13.1855ZM161.745 28.4485C157.953 28.4485 154.882 25.3747 154.882 21.5801C154.882 17.7856 157.953 14.7118 161.745 14.7118C165.536 14.7118 168.607 17.7856 168.607 21.5801C168.607 25.3747 165.536 28.4485 161.745 28.4485Z" fill="#1A1A1A"/>
</svg>
